<svg xmlns="http://www.w3.org/2000/svg" viewBox="0 0 1080 1350" role="img" aria-labelledby="title desc">
  <title id="title">Supervisor Workshop event poster</title>
  <desc id="desc">Green, white and gold poster for Supervisor Workshop with development theme.</desc>
  <defs>
    <linearGradient id="bg" x1="0" x2="1" y1="0" y2="1">
      <stop offset="0" stop-color="#12311f"/>
      <stop offset="0.5" stop-color="#006341"/>
      <stop offset="1" stop-color="#7ac143"/>
    </linearGradient>
    <linearGradient id="card" x1="0" x2="1" y1="0" y2="1">
      <stop offset="0" stop-color="#ffffff"/>
      <stop offset="1" stop-color="#eef8e8"/>
    </linearGradient>
    <filter id="shadow" x="-20%" y="-20%" width="140%" height="140%">
      <feDropShadow dx="0" dy="30" stdDeviation="28" flood-color="#092216" flood-opacity="0.36"/>
    </filter>
  </defs>
  <rect width="1080" height="1350" fill="url(#bg)"/>
  <path d="M0 260 C250 122 380 334 604 210 C770 118 926 120 1080 178 L1080 0 L0 0 Z" fill="#f0c85a" opacity="0.82"/>
  <path d="M0 1070 C244 948 438 1210 690 1032 C828 934 958 916 1080 952 L1080 1350 L0 1350 Z" fill="#0b2f1f" opacity="0.5"/>
  <g filter="url(#shadow)">
    <rect x="106" y="120" width="868" height="1110" rx="58" fill="none" stroke="#ffffff" stroke-opacity="0.45" stroke-width="4"/>
    <rect x="150" y="688" width="780" height="388" rx="34" fill="url(#card)"/>
  </g>
  <text x="150" y="342" fill="#ffffff" font-family="Arial, Helvetica, sans-serif" font-size="96" font-weight="900">SUPERVISOR</text>
  <text x="150" y="452" fill="#f0c85a" font-family="Arial, Helvetica, sans-serif" font-size="104" font-weight="900">WORKSHOP</text>
  <rect x="150" y="512" width="462" height="12" rx="6" fill="#ffffff"/>
  <g transform="translate(665 448)">
    <circle cx="94" cy="94" r="94" fill="#ffffff" opacity="0.18"/>
    <path d="M95 30 C132 30 162 61 162 98 C162 145 115 170 95 186 C75 170 28 145 28 98 C28 61 58 30 95 30 Z" fill="#f0c85a"/>
    <path d="M66 104 L88 126 L126 78" fill="none" stroke="#17351f" stroke-width="18" stroke-linecap="round" stroke-linejoin="round"/>
  </g>
  <text x="194" y="800" fill="#17351f" font-family="Arial, Helvetica, sans-serif" font-size="50" font-weight="900">LET'S GROOM</text>
  <text x="194" y="870" fill="#17623f" font-family="Arial, Helvetica, sans-serif" font-size="48" font-weight="900">AND DEVELOP</text>
  <text x="194" y="988" fill="#34402f" font-family="Arial, Helvetica, sans-serif" font-size="36" font-weight="800">SANKARANKOVIL</text>
  <rect x="150" y="1132" width="780" height="88" rx="28" fill="#17351f"/>
  <text x="194" y="1189" fill="#ffffff" font-family="Arial, Helvetica, sans-serif" font-size="38" font-weight="900">8 JUNE 2026  |  Rs. 800</text>
</svg>
